<svg xmlns="http://www.w3.org/2000/svg" xmlns:xlink="http://www.w3.org/1999/xlink" viewBox="0 0 123.2 54.1" xmlns:v="https://vecta.io/nano"><path d="M53.3 14.2c0-.8.6-1.5 1.4-1.5h4.4a1.54 1.54 0 0 1 1.5 1.5v10.6a1.54 1.54 0 0 1-1.5 1.5h-4.4c-.8 0-1.5-.7-1.4-1.5V14.2zm5.8-6H55a6.06 6.06 0 0 0-6.1 6.1v10.3a6.06 6.06 0 0 0 6.1 6.1h4.1a6.06 6.06 0 0 0 6.1-6.1V14.4c0-3.4-2.8-6.1-6.1-6.2m13.8 13.3h5.9c.8 0 1.4.7 1.4 1.4v1.9c0 .8-.6 1.5-1.4 1.5h-5.9v-4.8zm5.9-4.5h-5.9v-4.3h5.9c.8 0 1.5.7 1.4 1.5v1.4c0 .7-.6 1.4-1.4 1.4m-.2-8.8h-9.9c-.1 0-.2.1-.2.2v22c0 .1.1.2.2.2h9.9a6.06 6.06 0 0 0 6.1-6.1V23c0-1.4-.5-2.8-1.4-3.8.9-1.1 1.4-2.5 1.4-3.9v-1c0-3.3-2.8-6-6.1-6.1m25.2 0H88c-.1 0-.2.1-.2.2v22c0 .1.1.2.2.2h15.8c.1 0 .2-.1.2-.2h0v-4c0-.1-.1-.2-.2-.2H92.3v-4.8h8.8c.1 0 .2-.1.2-.2h0v-4.1c0-.1-.1-.2-.2-.2h-8.8v-4.3h11.6c.1 0 .2-.1.2-.2v-4c-.1 0-.2-.1-.3-.2h0m15 6v1.6c0 .8-.6 1.4-1.4 1.4h-5.9v-4.6h5.9c.7.1 1.4.8 1.4 1.6m4.4 1.4v-1.3a6.06 6.06 0 0 0-6.1-6.1h-9.9c-.1 0-.2.1-.2.2v22c0 .1.1.2.2.2h4c.1 0 .2-.1.2-.2h0v-8.8h3.2l3.6 5.8c.3.4.5.9.5 1.4v1.6c0 .1.1.2.2.2h4c.1 0 .2-.1.2-.2h0v-1.1c.1-1.6-.3-3.1-1.3-4.4l-2.4-3.8a5.49 5.49 0 0 0 3.8-5.5" fill="#fff"/><defs><path id="A" d="M18.7 8.5h0l.4.8c.8-.4 1.8-.2 2.3.5l8.7 8.7h0c.6.5.8 1.4.5 2.2l.9.5c.6-1.2.3-2.6-.7-3.4l-8.7-8.7c-.5-.6-1.3-1-2.1-1-.4 0-.9.2-1.3.4"/></defs><clipPath id="B"><use xlink:href="#A"/></clipPath><g clip-path="url(#B)"><linearGradient id="C" gradientUnits="userSpaceOnUse" x1="-870.436" y1="514.86" x2="-870.364" y2="514.86" gradientTransform="matrix(13.3834 -13.3834 -13.3834 -13.3834 18721.8496 -4900.4517)"><stop offset="0" stop-color="#939598"/><stop offset=".001" stop-color="#939598"/><stop offset=".065" stop-color="#b4b5b7"/><stop offset=".133" stop-color="#cfd0d1"/><stop offset=".207" stop-color="#e4e5e5"/><stop offset=".29" stop-color="#f3f3f4"/><stop offset=".387" stop-color="#fcfcfc"/><stop offset=".536" stop-color="#fff"/><stop offset=".688" stop-color="#fcfcfc"/><stop offset=".77" stop-color="#f4f4f5"/><stop offset=".835" stop-color="#e7e7e8"/><stop offset=".891" stop-color="#d3d4d5"/><stop offset=".942" stop-color="#babcbd"/><stop offset=".988" stop-color="#9c9ea0"/><stop offset="1" stop-color="#939598"/></linearGradient><path d="M12.2 14.7L25.5 1.3l13.4 13.4-13.4 13.4z" fill="url(#C)"/></g><defs><path id="D" d="M20 7.2h0l.5.8c.8-.4 1.8-.2 2.3.5l8.7 8.7h0c.6.5.8 1.4.5 2.2l.9.5c.6-1.2.3-2.6-.7-3.4l-8.7-8.7c-.5-.6-1.3-1-2.1-1-.5 0-1 .2-1.4.4"/></defs><clipPath id="E"><use xlink:href="#D"/></clipPath><g clip-path="url(#E)"><linearGradient id="F" gradientUnits="userSpaceOnUse" x1="-870.505" y1="514.855" x2="-870.432" y2="514.855" gradientTransform="matrix(13.3821 -13.3821 -13.3821 -13.3821 18721.2207 -4901.3154)"><stop offset="0" stop-color="#939598"/><stop offset=".001" stop-color="#939598"/><stop offset=".065" stop-color="#b4b5b7"/><stop offset=".133" stop-color="#cfd0d1"/><stop offset=".207" stop-color="#e4e5e5"/><stop offset=".29" stop-color="#f3f3f4"/><stop offset=".387" stop-color="#fcfcfc"/><stop offset=".536" stop-color="#fff"/><stop offset=".688" stop-color="#fcfcfc"/><stop offset=".77" stop-color="#f4f4f5"/><stop offset=".835" stop-color="#e7e7e8"/><stop offset=".891" stop-color="#d3d4d5"/><stop offset=".942" stop-color="#babcbd"/><stop offset=".988" stop-color="#9c9ea0"/><stop offset="1" stop-color="#939598"/></linearGradient><path d="M13.5 13.4L26.8 0l13.4 13.4-13.4 13.4z" fill="url(#F)"/></g><defs><path id="G" d="M21.3 5.9h0l.4.8c.8-.4 1.8-.2 2.3.5l8.7 8.7h0c.6.5.8 1.4.5 2.2l.9.5c.6-1.2.3-2.6-.7-3.4l-8.7-8.7c-.5-.6-1.3-1-2.1-1-.4 0-.9.2-1.3.4"/></defs><clipPath id="H"><use xlink:href="#G"/></clipPath><g clip-path="url(#H)"><linearGradient id="I" gradientUnits="userSpaceOnUse" x1="-870.573" y1="514.857" x2="-870.5" y2="514.857" gradientTransform="matrix(13.3827 -13.3827 -13.3827 -13.3827 18723.4082 -4902.813)"><stop offset="0" stop-color="#939598"/><stop offset=".001" stop-color="#939598"/><stop offset=".065" stop-color="#b4b5b7"/><stop offset=".133" stop-color="#cfd0d1"/><stop offset=".207" stop-color="#e4e5e5"/><stop offset=".29" stop-color="#f3f3f4"/><stop offset=".387" stop-color="#fcfcfc"/><stop offset=".536" stop-color="#fff"/><stop offset=".688" stop-color="#fcfcfc"/><stop offset=".77" stop-color="#f4f4f5"/><stop offset=".835" stop-color="#e7e7e8"/><stop offset=".891" stop-color="#d3d4d5"/><stop offset=".942" stop-color="#babcbd"/><stop offset=".988" stop-color="#9c9ea0"/><stop offset="1" stop-color="#939598"/></linearGradient><path d="M14.7 12.1L28.1-1.3l13.4 13.4-13.4 13.4z" fill="url(#I)"/></g><defs><path id="J" d="M22.6 4.6h0l.4.8c.8-.4 1.8-.1 2.4.6l8.7 8.7h0c.6.5.8 1.4.5 2.2l.9.5c.6-1.2.3-2.6-.7-3.4l-8.7-8.7c-.5-.6-1.3-1-2.1-1-.5 0-1 .1-1.4.3"/></defs><clipPath id="K"><use xlink:href="#J"/></clipPath><g clip-path="url(#K)"><linearGradient id="L" gradientUnits="userSpaceOnUse" x1="-870.64" y1="514.855" x2="-870.567" y2="514.855" gradientTransform="matrix(13.382 -13.382 -13.382 -13.382 18723.6699 -4903.8774)"><stop offset="0" stop-color="#939598"/><stop offset=".001" stop-color="#939598"/><stop offset=".065" stop-color="#b4b5b7"/><stop offset=".133" stop-color="#cfd0d1"/><stop offset=".207" stop-color="#e4e5e5"/><stop offset=".29" stop-color="#f3f3f4"/><stop offset=".387" stop-color="#fcfcfc"/><stop offset=".536" stop-color="#fff"/><stop offset=".688" stop-color="#fcfcfc"/><stop offset=".77" stop-color="#f4f4f5"/><stop offset=".835" stop-color="#e7e7e8"/><stop offset=".891" stop-color="#d3d4d5"/><stop offset=".942" stop-color="#babcbd"/><stop offset=".988" stop-color="#9c9ea0"/><stop offset="1" stop-color="#939598"/></linearGradient><path d="M16 10.8L29.4-2.6l13.4 13.4-13.4 13.4z" fill="url(#L)"/></g><defs><path id="M" d="M23.9 3.3h0l.4.8c.8-.4 1.8-.2 2.3.5l8.7 8.7h0c.6.5.8 1.4.5 2.2l.9.5c.6-1.2.3-2.6-.7-3.4L27.4 4c-.5-.6-1.3-1-2.1-1-.5 0-1 .1-1.4.3"/></defs><clipPath id="N"><use xlink:href="#M"/></clipPath><g clip-path="url(#N)"><linearGradient id="O" gradientUnits="userSpaceOnUse" x1="-870.708" y1="514.855" x2="-870.636" y2="514.855" gradientTransform="matrix(13.382 -13.382 -13.382 -13.382 18724.9668 -4905.1743)"><stop offset="0" stop-color="#939598"/><stop offset=".001" stop-color="#939598"/><stop offset=".065" stop-color="#b4b5b7"/><stop offset=".133" stop-color="#cfd0d1"/><stop offset=".207" stop-color="#e4e5e5"/><stop offset=".29" stop-color="#f3f3f4"/><stop offset=".387" stop-color="#fcfcfc"/><stop offset=".536" stop-color="#fff"/><stop offset=".688" stop-color="#fcfcfc"/><stop offset=".77" stop-color="#f4f4f5"/><stop offset=".835" stop-color="#e7e7e8"/><stop offset=".891" stop-color="#d3d4d5"/><stop offset=".942" stop-color="#babcbd"/><stop offset=".988" stop-color="#9c9ea0"/><stop offset="1" stop-color="#939598"/></linearGradient><path d="M17.3 9.5L30.7-3.9 44.1 9.5 30.7 22.9z" fill="url(#O)"/></g><defs><path id="P" d="M25.2 2h0l.4.8c.8-.4 1.8-.2 2.3.5l8.7 8.7h0c.6.5.8 1.4.5 2.2l.9.5c.6-1.2.3-2.6-.7-3.4l-8.7-8.7c-.5-.6-1.3-1-2.1-1-.4.1-.9.2-1.3.4"/></defs><clipPath id="Q"><use xlink:href="#P"/></clipPath><g clip-path="url(#Q)"><linearGradient id="R" gradientUnits="userSpaceOnUse" x1="-870.773" y1="514.844" x2="-870.701" y2="514.844" gradientTransform="matrix(13.3793 -13.3793 -13.3793 -13.3793 18722.2695 -4905.5742)"><stop offset="0" stop-color="#939598"/><stop offset=".001" stop-color="#939598"/><stop offset=".065" stop-color="#b4b5b7"/><stop offset=".133" stop-color="#cfd0d1"/><stop offset=".207" stop-color="#e4e5e5"/><stop offset=".29" stop-color="#f3f3f4"/><stop offset=".387" stop-color="#fcfcfc"/><stop offset=".536" stop-color="#fff"/><stop offset=".688" stop-color="#fcfcfc"/><stop offset=".77" stop-color="#f4f4f5"/><stop offset=".835" stop-color="#e7e7e8"/><stop offset=".891" stop-color="#d3d4d5"/><stop offset=".942" stop-color="#babcbd"/><stop offset=".988" stop-color="#9c9ea0"/><stop offset="1" stop-color="#939598"/></linearGradient><path d="M18.6 8.2L32-5.2 45.4 8.2 32 21.6z" fill="url(#R)"/></g><defs><path id="S" d="M26.5.7h0l.4.8c.8-.4 1.8-.2 2.3.5l8.7 8.7h0c.6.5.8 1.4.5 2.2l.9.5c.6-1.2.3-2.6-.6-3.4L30 1.4c-.5-.6-1.3-1-2.1-1-.5 0-1 .1-1.4.3"/></defs><clipPath id="T"><use xlink:href="#S"/></clipPath><g clip-path="url(#T)"><linearGradient id="U" gradientUnits="userSpaceOnUse" x1="-870.844" y1="514.852" x2="-870.771" y2="514.852" gradientTransform="matrix(13.3813 -13.3813 -13.3813 -13.3813 18726.5273 -4907.5356)"><stop offset="0" stop-color="#939598"/><stop offset=".001" stop-color="#939598"/><stop offset=".065" stop-color="#b4b5b7"/><stop offset=".133" stop-color="#cfd0d1"/><stop offset=".207" stop-color="#e4e5e5"/><stop offset=".29" stop-color="#f3f3f4"/><stop offset=".387" stop-color="#fcfcfc"/><stop offset=".536" stop-color="#fff"/><stop offset=".688" stop-color="#fcfcfc"/><stop offset=".77" stop-color="#f4f4f5"/><stop offset=".835" stop-color="#e7e7e8"/><stop offset=".891" stop-color="#d3d4d5"/><stop offset=".942" stop-color="#babcbd"/><stop offset=".988" stop-color="#9c9ea0"/><stop offset="1" stop-color="#939598"/></linearGradient><path d="M19.9 6.9L33.3-6.5 46.7 6.9 33.3 20.3z" fill="url(#U)"/></g><defs><path id="V" d="M8.5 18.8a2.92 2.92 0 0 0 .7 3.3l8.6 8.6c.5.6 1.3 1 2.1 1 .5 0 1-.1 1.4-.4l-.5-.8c-.8.4-1.8.2-2.3-.6l-8.6-8.7h0c-.6-.5-.9-1.4-.5-2.2l-.5-.3-.4.1z"/></defs><clipPath id="W"><use xlink:href="#V"/></clipPath><g clip-path="url(#W)"><linearGradient id="X" gradientUnits="userSpaceOnUse" x1="-869.546" y1="514.261" x2="-869.472" y2="514.261" gradientTransform="matrix(13.2328 -13.2328 -13.2328 -13.2328 18490.3672 -4840.3198)"><stop offset="0" stop-color="#939598"/><stop offset=".001" stop-color="#939598"/><stop offset=".065" stop-color="#b4b5b7"/><stop offset=".133" stop-color="#cfd0d1"/><stop offset=".207" stop-color="#e4e5e5"/><stop offset=".29" stop-color="#f3f3f4"/><stop offset=".387" stop-color="#fcfcfc"/><stop offset=".536" stop-color="#fff"/><stop offset=".688" stop-color="#fcfcfc"/><stop offset=".77" stop-color="#f4f4f5"/><stop offset=".835" stop-color="#e7e7e8"/><stop offset=".891" stop-color="#d3d4d5"/><stop offset=".942" stop-color="#babcbd"/><stop offset=".988" stop-color="#9c9ea0"/><stop offset="1" stop-color="#939598"/></linearGradient><path d="M1.3 25.3L14.6 12l13.2 13.3-13.2 13.2z" fill="url(#X)"/></g><defs><path id="Y" d="M7.2 20.1a2.92 2.92 0 0 0 .7 3.3l8.6 8.6c.5.6 1.3 1 2.1 1 .5 0 1-.1 1.4-.4l-.5-.8c-.8.4-1.8.2-2.3-.6l-8.6-8.7h0c-.7-.5-.9-1.4-.5-2.2l-.5-.3-.4.1z"/></defs><clipPath id="Z"><use xlink:href="#Y"/></clipPath><g clip-path="url(#Z)"><linearGradient id="a" gradientUnits="userSpaceOnUse" x1="-869.477" y1="514.261" x2="-869.403" y2="514.261" gradientTransform="matrix(13.2328 -13.2328 -13.2328 -13.2328 18489.0742 -4839.0278)"><stop offset="0" stop-color="#939598"/><stop offset=".001" stop-color="#939598"/><stop offset=".065" stop-color="#b4b5b7"/><stop offset=".133" stop-color="#cfd0d1"/><stop offset=".207" stop-color="#e4e5e5"/><stop offset=".29" stop-color="#f3f3f4"/><stop offset=".387" stop-color="#fcfcfc"/><stop offset=".536" stop-color="#fff"/><stop offset=".688" stop-color="#fcfcfc"/><stop offset=".77" stop-color="#f4f4f5"/><stop offset=".835" stop-color="#e7e7e8"/><stop offset=".891" stop-color="#d3d4d5"/><stop offset=".942" stop-color="#babcbd"/><stop offset=".988" stop-color="#9c9ea0"/><stop offset="1" stop-color="#939598"/></linearGradient><path d="M0 26.6l13.3-13.3 13.2 13.3-13.2 13.2z" fill="url(#a)"/></g><defs><path id="b" d="M5.9 21.4a2.92 2.92 0 0 0 .7 3.3l8.6 8.6c.5.6 1.3 1 2.1 1 .5 0 1-.1 1.4-.4l-.5-.8c-.8.4-1.8.2-2.3-.6l-8.6-8.7h0c-.6-.5-.9-1.4-.5-2.2l-.5-.3-.4.1z"/></defs><clipPath id="c"><use xlink:href="#b"/></clipPath><g clip-path="url(#c)"><linearGradient id="d" gradientUnits="userSpaceOnUse" x1="-869.405" y1="514.255" x2="-869.331" y2="514.255" gradientTransform="matrix(13.2314 -13.2314 -13.2314 -13.2314 18485.7109 -4837.2695)"><stop offset="0" stop-color="#939598"/><stop offset=".001" stop-color="#939598"/><stop offset=".065" stop-color="#b4b5b7"/><stop offset=".133" stop-color="#cfd0d1"/><stop offset=".207" stop-color="#e4e5e5"/><stop offset=".29" stop-color="#f3f3f4"/><stop offset=".387" stop-color="#fcfcfc"/><stop offset=".536" stop-color="#fff"/><stop offset=".688" stop-color="#fcfcfc"/><stop offset=".77" stop-color="#f4f4f5"/><stop offset=".835" stop-color="#e7e7e8"/><stop offset=".891" stop-color="#d3d4d5"/><stop offset=".942" stop-color="#babcbd"/><stop offset=".988" stop-color="#9c9ea0"/><stop offset="1" stop-color="#939598"/></linearGradient><path d="M-1.3 27.9L12 14.6l13.2 13.3L12 41.1z" fill="url(#d)"/></g><defs><path id="e" d="M4.6 22.7c-.5 1.1-.2 2.4.7 3.3l8.6 8.6c.5.6 1.3 1 2.1 1 .5 0 1-.1 1.4-.4l-.4-.8c-.8.4-1.8.2-2.3-.6L6 25.2h0c-.7-.5-.9-1.4-.5-2.2l-.5-.3h-.4z"/></defs><clipPath id="f"><use xlink:href="#e"/></clipPath><g clip-path="url(#f)"><linearGradient id="g" gradientUnits="userSpaceOnUse" x1="-869.334" y1="514.253" x2="-869.26" y2="514.253" gradientTransform="matrix(13.2307 -13.2307 -13.2307 -13.2307 18483.3867 -4835.7451)"><stop offset="0" stop-color="#939598"/><stop offset=".001" stop-color="#939598"/><stop offset=".065" stop-color="#b4b5b7"/><stop offset=".133" stop-color="#cfd0d1"/><stop offset=".207" stop-color="#e4e5e5"/><stop offset=".29" stop-color="#f3f3f4"/><stop offset=".387" stop-color="#fcfcfc"/><stop offset=".536" stop-color="#fff"/><stop offset=".688" stop-color="#fcfcfc"/><stop offset=".77" stop-color="#f4f4f5"/><stop offset=".835" stop-color="#e7e7e8"/><stop offset=".891" stop-color="#d3d4d5"/><stop offset=".942" stop-color="#babcbd"/><stop offset=".988" stop-color="#9c9ea0"/><stop offset="1" stop-color="#939598"/></linearGradient><path d="M-2.6 29.1l13.3-13.2 13.2 13.2-13.2 13.3z" fill="url(#g)"/></g><defs><path id="h" d="M3.3 24a2.92 2.92 0 0 0 .7 3.3l8.6 8.6c.5.6 1.3 1 2.1 1 .5 0 1-.1 1.4-.4l-.5-.8c-.8.4-1.8.2-2.3-.6l-8.6-8.7h0c-.6-.5-.9-1.4-.5-2.2l-.5-.2h-.4z"/></defs><clipPath id="i"><use xlink:href="#h"/></clipPath><g clip-path="url(#i)"><linearGradient id="j" gradientUnits="userSpaceOnUse" x1="-869.268" y1="514.258" x2="-869.195" y2="514.258" gradientTransform="matrix(13.2321 -13.2321 -13.2321 -13.2321 18484.1641 -4834.9189)"><stop offset="0" stop-color="#939598"/><stop offset=".001" stop-color="#939598"/><stop offset=".065" stop-color="#b4b5b7"/><stop offset=".133" stop-color="#cfd0d1"/><stop offset=".207" stop-color="#e4e5e5"/><stop offset=".29" stop-color="#f3f3f4"/><stop offset=".387" stop-color="#fcfcfc"/><stop offset=".536" stop-color="#fff"/><stop offset=".688" stop-color="#fcfcfc"/><stop offset=".77" stop-color="#f4f4f5"/><stop offset=".835" stop-color="#e7e7e8"/><stop offset=".891" stop-color="#d3d4d5"/><stop offset=".942" stop-color="#babcbd"/><stop offset=".988" stop-color="#9c9ea0"/><stop offset="1" stop-color="#939598"/></linearGradient><path d="M-3.8 30.4L9.4 17.2l13.2 13.2L9.4 43.7z" fill="url(#j)"/></g><defs><path id="k" d="M2 25.3c-.5 1.1-.2 2.4.7 3.3l8.6 8.6c.5.6 1.3 1 2.1 1 .5 0 1-.1 1.4-.4l-.4-.8c-.8.4-1.8.2-2.3-.6l-8.6-8.7h0c-.6-.5-.9-1.4-.5-2.2l-.5-.3-.5.1z"/></defs><clipPath id="l"><use xlink:href="#k"/></clipPath><g clip-path="url(#l)"><linearGradient id="m" gradientUnits="userSpaceOnUse" x1="-869.196" y1="514.253" x2="-869.122" y2="514.253" gradientTransform="matrix(13.2307 -13.2307 -13.2307 -13.2307 18480.8027 -4833.1621)"><stop offset="0" stop-color="#939598"/><stop offset=".001" stop-color="#939598"/><stop offset=".065" stop-color="#b4b5b7"/><stop offset=".133" stop-color="#cfd0d1"/><stop offset=".207" stop-color="#e4e5e5"/><stop offset=".29" stop-color="#f3f3f4"/><stop offset=".387" stop-color="#fcfcfc"/><stop offset=".536" stop-color="#fff"/><stop offset=".688" stop-color="#fcfcfc"/><stop offset=".77" stop-color="#f4f4f5"/><stop offset=".835" stop-color="#e7e7e8"/><stop offset=".891" stop-color="#d3d4d5"/><stop offset=".942" stop-color="#babcbd"/><stop offset=".988" stop-color="#9c9ea0"/><stop offset="1" stop-color="#939598"/></linearGradient><path d="M-5.1 31.7L8.1 18.5l13.2 13.2L8.1 45z" fill="url(#m)"/></g><defs><path id="n" d="M.7 26.6c-.5 1.1-.2 2.4.7 3.3l8.6 8.6c.5.6 1.3 1 2.1 1 .5 0 1-.1 1.4-.4l-.5-.8c-.8.4-1.8.2-2.3-.6L2 29h0c-.7-.5-.9-1.4-.5-2.2l-.5-.3-.3.1z"/></defs><clipPath id="o"><use xlink:href="#n"/></clipPath><g clip-path="url(#o)"><linearGradient id="p" gradientUnits="userSpaceOnUse" x1="-869.126" y1="514.25" x2="-869.052" y2="514.25" gradientTransform="matrix(13.23 -13.23 -13.23 -13.23 18478.4746 -4831.6372)"><stop offset="0" stop-color="#939598"/><stop offset=".001" stop-color="#939598"/><stop offset=".065" stop-color="#b4b5b7"/><stop offset=".133" stop-color="#cfd0d1"/><stop offset=".207" stop-color="#e4e5e5"/><stop offset=".29" stop-color="#f3f3f4"/><stop offset=".387" stop-color="#fcfcfc"/><stop offset=".536" stop-color="#fff"/><stop offset=".688" stop-color="#fcfcfc"/><stop offset=".77" stop-color="#f4f4f5"/><stop offset=".835" stop-color="#e7e7e8"/><stop offset=".891" stop-color="#d3d4d5"/><stop offset=".942" stop-color="#babcbd"/><stop offset=".988" stop-color="#9c9ea0"/><stop offset="1" stop-color="#939598"/></linearGradient><path d="M-6.4 33L6.8 19.8 20 33 6.8 46.3z" fill="url(#p)"/></g><defs><path id="q" d="M38.8 10.2c.3.3.5.7.5 1.2 0 .6-.2 1.2-.6 1.6l-8.4 8.4-8.6 8.6-2 2-6.3 6.3c-.2.2-.4.4-.7.5a1.69 1.69 0 0 1-1 .3c-.5 0-1-.2-1.4-.6h0l.6.6c.3.3.6.5 1 .6.3.1.6.2.9.2h14.7c.7 0 1.4-.3 1.9-.8l10-10c.3-.3.5-.6.6-1 .1-.3.2-.6.2-.9V12.6c0-.7-.3-1.4-.8-1.9l-.6-.5h0z"/></defs><clipPath id="r"><use xlink:href="#q"/></clipPath><g clip-path="url(#r)"><linearGradient id="s" gradientUnits="userSpaceOnUse" x1="-885.79" y1="543.891" x2="-885.758" y2="543.891" gradientTransform="matrix(29.8406 -29.8406 -29.8406 -29.8406 42814.8164 -10304.4941)"><stop offset="0" stop-color="#008db7"/><stop offset=".166" stop-color="#00a2cf"/><stop offset=".376" stop-color="#00b7e9"/><stop offset=".502" stop-color="#00c0f3"/><stop offset=".618" stop-color="#00baec"/><stop offset=".78" stop-color="#00abda"/><stop offset=".968" stop-color="#0091bc"/><stop offset="1" stop-color="#008db7"/></linearGradient><path d="M-4.7 25.1L25.2-4.8 55 25.1 25.2 54.9z" fill="url(#s)"/></g><defs><path id="t" d="M11.9 0h-.1c-.4.1-.7.3-1 .6L7.6 3.9.8 10.7c-.3.3-.5.6-.6 1-.1.2-.2.4-.2.6v15.2c.1.6.3 1.2.7 1.6l.6.6c-.3-.4-.6-.8-.7-1.3 0-.6.2-1.2.6-1.6l8.5-8.5 8.5-8.5 8.4-8.4c.4-.5 1-.8 1.7-.8s1.3.3 1.7.9l-.9-.9c-.1-.3-.5-.5-.9-.6H11.9z"/></defs><clipPath id="u"><use xlink:href="#t"/></clipPath><g clip-path="url(#u)"><linearGradient id="v" gradientUnits="userSpaceOnUse" x1="-885.596" y1="543.988" x2="-885.563" y2="543.988" gradientTransform="matrix(29.9629 -29.9629 -29.9629 -29.9629 42983.8164 -10354.915)"><stop offset="0" stop-color="#008db7"/><stop offset=".166" stop-color="#00a2cf"/><stop offset=".376" stop-color="#00b7e9"/><stop offset=".502" stop-color="#00c0f3"/><stop offset=".618" stop-color="#00baec"/><stop offset=".78" stop-color="#00abda"/><stop offset=".968" stop-color="#0091bc"/><stop offset="1" stop-color="#008db7"/></linearGradient><path d="M-14.9 14.9l30-30 29.9 30-29.9 30z" fill="url(#v)"/></g><path d="M91.6 50.3c-1.1 0-2.3-.2-3.1-.6l.4-1.7c.9.3 1.8.5 2.8.5 1.1 0 1.3-.2 1.3-1 0-.9 0-1-1.6-1.3-2.4-.5-2.7-1-2.7-3.1 0-1.9.7-2.7 3.4-2.7.8 0 1.9.1 3 .3l-.2 1.8c-1.1-.2-1.8-.3-2.7-.3-1 0-1.2.2-1.2.9 0 .9 0 1 1.6 1.3 2.6.6 2.8 1.1 2.8 3.1-.2 1.8-.9 2.8-3.8 2.8zm10.4-.2v-3.9h-3.1v3.9h-2.2v-9.8h2.2v3.9h3.1v-3.9h2.2v9.8H102zm11.5-2.8c0 1.5-1 3-3.8 3s-3.8-1.5-3.8-3v-4.1c0-1.5 1-3 3.8-3s3.8 1.5 3.8 3v4.1zm-2.2-3.9c0-.8-.5-1.2-1.6-1.2s-1.6.5-1.6 1.2v3.7c0 .8.5 1.2 1.6 1.2s1.6-.5 1.6-1.2v-3.7zm7.7 3.8h-1.7v3h-2.2v-9.8h4c2.4 0 3.3.9 3.3 2.8v1.3c0 1.8-1 2.7-3.4 2.7zm1.2-3.8c0-.7-.2-1-1.2-1h-1.7v2.9h1.7c1 0 1.2-.4 1.2-1.1v-.8z" enable-background="new" fill="#fff"/></svg>